<svg width="200" height="200" xmlns="http://www.w3.org/2000/svg">
 <!-- Created with Method Draw - http://github.com/duopixel/Method-Draw/ -->

 <g>
  <title>background</title>
  <rect x="-1" y="-1" width="202" height="202" id="canvas_background" fill="none"/>
  <g id="canvasGrid" display="none">
   <rect id="svg_1" width="100%" height="100%" x="0" y="0" stroke-width="0" fill="url(#gridpattern)"/>
  </g>
 </g>
 <g>
  <title>Layer 1</title>
  <path fill="#444444" stroke-width="0" stroke-opacity="null" d="m46.45666,76.59416c12.36164,23.70152 14.77494,30.89934 10.68774,31.87683c-7.98408,1.9095 -6.37966,12.83025 4.79539,32.64065c14.01471,24.84444 41.46524,40.10118 67.24974,37.37679c10.00806,-1.05746 21.32261,-3.2398 25.14345,-4.8497c3.82082,-1.60993 1.47621,1.38918 -5.21024,6.66464c-33.4495,26.39086 -74.76111,24.55252 -107.7188,-4.79337c-13.14085,-11.7008 -31.22062,-45.88728 -31.22062,-59.03418c0,-3.72443 -2.98073,-7.33326 -6.62384,-8.01957c-5.95788,-1.1224 -5.15777,-4.0777 7.95824,-29.39447c8.02015,-15.48065 15.56979,-29.25707 16.777,-30.61426c1.20722,-1.35718 9.38009,11.30879 18.16195,28.14663l-0.00001,0.00001zm106.25894,45.69361c-12.36164,-23.70151 -14.77494,-30.89936 -10.68776,-31.87683c7.98408,-1.90947 6.37967,-12.83024 -4.79536,-32.64065c-14.01472,-24.84444 -41.46528,-40.10119 -67.24977,-37.3768c-10.00805,1.05744 -21.32258,3.23982 -25.14342,4.84973c-3.82084,1.6099 -1.47623,-1.3892 5.21023,-6.66466c33.44951,-26.39087 74.76112,-24.55254 107.71881,4.79339c13.14085,11.70076 31.22061,45.88727 31.22061,59.03414c0,3.72446 2.98076,7.33326 6.62382,8.01957c5.95791,1.12242 5.15778,4.0777 -7.9582,29.39448c-8.02015,15.48063 -15.56981,29.25706 -16.77701,30.61426c-1.20723,1.35718 -9.38009,-11.30878 -18.16195,-28.14662l0,-0.00001z" id="svg_9" stroke="#7f7f7f" transform="rotate(130 99.58612823486328,99.4409637451172) "/>
 </g>
</svg>