<svg width="200" height="200" xmlns="http://www.w3.org/2000/svg" id="reset">
 <!-- Created with Method Draw - http://github.com/duopixel/Method-Draw/ -->
 <g>
  <title>background</title>
  <rect fill="none" id="canvas_background" height="202" width="202" y="-1" x="-1"/>
  <g display="none" overflow="visible" y="0" x="0" height="100%" width="100%" id="canvasGrid">
   <rect fill="url(#gridpattern)" stroke-width="0" y="0" x="0" height="100%" width="100%"/>
  </g>
 </g>
 <g>
  <title>Layer 1</title>
  <path transform="rotate(130 99.58612823486328,99.4409637451172) " stroke="#7f7f7f" id="svg_9" d="m46.456661,76.594156c12.361641,23.701521 14.774942,30.899345 10.68774,31.876834c-7.984077,1.909504 -6.379662,12.830245 4.795389,32.640653c14.014712,24.844433 41.465239,40.101178 67.249743,37.376786c10.008055,-1.057461 21.322606,-3.239797 25.143446,-4.849704c3.820819,-1.609928 1.476215,1.389187 -5.21024,6.664649c-33.449499,26.390856 -74.76111,24.552515 -107.718801,-4.793376c-13.14085,-11.700799 -31.220618,-45.88728 -31.220618,-59.034182c0,-3.724428 -2.980731,-7.333254 -6.623839,-8.019567c-5.957881,-1.122396 -5.157768,-4.077699 7.958235,-29.394468c8.02015,-15.480653 15.569796,-29.257073 16.777001,-30.614257c1.207226,-1.357184 9.380094,11.308789 18.161951,28.146626l-0.000007,0.000007zm106.258944,45.693617c-12.361647,-23.701515 -14.774942,-30.899365 -10.68776,-31.876834c7.984077,-1.90947 6.379669,-12.830238 -4.795369,-32.640653c-14.014719,-24.84444 -41.465272,-40.101184 -67.249763,-37.3768c-10.008055,1.057447 -21.322586,3.239823 -25.143419,4.849738c-3.820839,1.609894 -1.476229,-1.389207 5.210227,-6.664662c33.449506,-26.390869 74.761117,-24.552542 107.718807,4.79339c13.140856,11.700759 31.220611,45.887267 31.220611,59.034142c0,3.724455 2.980758,7.333254 6.623826,8.019567c5.957908,1.122416 5.157775,4.077699 -7.958209,29.394481c-8.020143,15.480633 -15.569809,29.25706 -16.777001,30.614257c-1.207232,1.357184 -9.380094,-11.308775 -18.161951,-28.146619l0,-0.000007z" fill-opacity="null" stroke-opacity="null" stroke-width="0" fill="#7f7f7f"/>
 </g>
</svg>